<svg width="256" height="256" version="1.1" viewBox="0 0 67.733333 67.733338" xmlns="http://www.w3.org/2000/svg">
<defs>
<linearGradient id="d" x1="19.193" x2="103.49" y1=".2157" y2="254.27" gradientUnits="userSpaceOnUse">
<stop stop-color="#7cb0e5" offset="0"/>
<stop stop-color="#3f8cd9" offset="1"/>
</linearGradient>
<linearGradient id="b" x1="144.91" x2="232.43" y2="255.14" gradientTransform="translate(0 -1.0499e-5)" gradientUnits="userSpaceOnUse">
<stop stop-color="#aaa" offset="0"/>
<stop stop-color="#8c8c8c" offset="1"/>
</linearGradient>
<linearGradient id="a" x1="201.56" x2="205.39" y1="199.5" y2="230.69" gradientUnits="userSpaceOnUse">
<stop stop-color="#71a9e3" offset="0"/>
<stop stop-color="#60a0e0" offset="1"/>
</linearGradient>
<filter id="g" color-interpolation-filters="sRGB">
<feFlood flood-color="rgb(0,0,0)" flood-opacity=".2" result="flood"/>
<feComposite in="flood" in2="SourceGraphic" operator="in" result="composite1"/>
<feGaussianBlur in="composite1" result="blur" stdDeviation="1"/>
<feOffset dx="0" dy="2" result="offset"/>
<feComposite in="SourceGraphic" in2="offset" result="composite2"/>
</filter>
<filter id="f" color-interpolation-filters="sRGB">
<feFlood flood-color="rgb(0,0,0)" flood-opacity=".2" result="flood"/>
<feComposite in="flood" in2="SourceGraphic" operator="in" result="composite1"/>
<feGaussianBlur in="composite1" result="blur" stdDeviation="1"/>
<feOffset dx="0" dy="2" result="offset"/>
<feComposite in="SourceGraphic" in2="offset" result="composite2"/>
</filter>
<filter id="e" color-interpolation-filters="sRGB">
<feFlood flood-color="rgb(0,0,0)" flood-opacity=".2" result="flood"/>
<feComposite in="flood" in2="SourceGraphic" operator="in" result="composite1"/>
<feGaussianBlur in="composite1" result="blur" stdDeviation="1"/>
<feOffset dx="0" dy="2" result="offset"/>
<feComposite in="SourceGraphic" in2="offset" result="composite2"/>
</filter>
<linearGradient id="c" x1="92.764" x2="92.564" y1="255.93" y2="233.64" gradientTransform="translate(-.00015941 -.025489)" gradientUnits="userSpaceOnUse">
<stop stop-color="#fff" stop-opacity=".12549" offset="0"/>
<stop stop-color="#fff" stop-opacity="0" offset="1"/>
</linearGradient>
</defs>

<g transform="translate(0 -229.27)">
<rect x=".26458" y="229.27" width="67.204" height="67.733" rx="16.933" fill="#fff" stroke-width=".26458"/>
<g transform="scale(.99982 1.0002)" aria-label="ticlo">
<path transform="matrix(.26463 0 0 .26454 0 229.23)" d="m0 0v191.98c0 35.469 28.544 64.023 64 64.023h64c-0.018-9e-3 -0.0347-0.02-0.0527-0.0293-38.831-0.61388-58.26-28.486-58.26-83.652 0-8.5528 0.29299-17.202 0.87695-25.949h-11.387c-5.8397 0-9.8314-1.0688-11.973-3.207-1.9466-2.1382-2.9199-5.5399-2.9199-10.205 0-10.885 4.3811-16.328 13.141-16.328h16.643c3.3091-21.382 8.3707-40.917 15.184-58.605 6.8129-17.689 14.987-31.783 24.525-42.279 9.6995-10.461 20.076-15.704 31.129-15.74 0.00148-0.0011102 0.00243-0.002796 0.00391-0.0039062h-48.91z" fill="url(#d)" filter="url(#e)" stroke-width=".13269"/>
<path transform="matrix(.26463 0 0 .26454 0 229.23)" d="m205.44 192.73c-2.7604 0-4.885 1.2418-6.9375 4.4004-1.8812 2.9455-2.9961 7.7738-2.9961 14.479 0 5.2426 0.96538 8.866 2.4805 10.912 1.6341 2.2069 3.3032 3.0723 5.5801 3.0723 2.5321 0 4.5276-1.2016 6.502-4.3789 4e-3 -0.0124 9e-3 -0.0248 0.0137-0.0371 1.9857-3.0624 3.1367-7.8676 3.1367-14.463 0-5.04-0.9496-8.6126-2.5078-10.795-1.6629-2.3289-3.2558-3.1894-5.2715-3.1894z" fill="url(#a)" filter="url(#f)" stroke-width=".13269"/>
<path transform="matrix(.26463 0 0 .26454 0 229.23)" d="m145.02 0c16.696-0.38713 25.268 17.555 26.033 31.976 2.7872 32.439-13.34 63.961-37.713 84.653 12.23 0.27594 24.557-0.59112 36.718 0.51026 12.366 8.6371-0.57945 28.383-13.814 27.972-16.562 2.3021-33.376 0.8457-50.058 1.2575-0.32987 21.769-2.9847 44.965 6.4238 65.312 10.39 18.027 37.235 13.255 50.002-0.5376 12.727-13.898 13.47-26.51 30.899-35.069 15.133-8.0831 35.862 0.53284 39.968 17.403 6.5391 20.318-4.1286 48.474-26.985 51.405-12.547 1.419-20.334-2.9288-26.78-14.301-9.4502 12.973-18.406 19.303-32.353 22.738-6.345 2.7769-25.845 2.7675-10.271 2.6796h118.91c-0.12216-65.637 0.24535-131.29-0.18593-196.92-1.672-31.802-30.308-59.019-62.157-59.063-16.212-0.04811-32.425-0.0073205-48.637-0.020832zm-7.8828 27.99c-10.896 5.2754-12.92 19.677-17.016 30.049-5.2981 17.696-8.4708 35.946-11.015 54.217 21.495-18.512 37.299-47.137 33.828-76.134-0.59917-3.1908-1.7108-8.038-5.7965-8.1313z" fill="url(#b)" filter="url(#g)" stroke-width=".13269"/>
<path transform="matrix(.26463 0 0 .26454 0 229.23)" d="m11.656 228.86c11.564 16.419 30.653 27.117 52.344 27.117h64c-0.0181-8e-3 -0.0348-0.018-0.0527-0.0293-21.906-0.34633-37.625-9.3838-47.176-27.088zm217.67 0c-4.9011 8.3859-12.653 14.695-22.828 16-12.547 1.419-20.335-2.9289-26.781-14.301-9.4502 12.973-18.405 19.304-32.352 22.738-6.345 2.7769-25.846 2.7676-10.271 2.6797h118.91c-0.0168-9.0391-0.0203-18.078-0.0215-27.117z" fill="url(#c)"/>
</g>
</g>
</svg>
